<?xml version="1.0" encoding="UTF-8" standalone="no"?>
<svg width="303px" height="309px" viewBox="0 0 303 309" version="1.1" xmlns="http://www.w3.org/2000/svg" xmlns:xlink="http://www.w3.org/1999/xlink" xmlns:sketch="http://www.bohemiancoding.com/sketch/ns">
    <!-- Generator: Sketch 3.3.3 (12072) - http://www.bohemiancoding.com/sketch -->
    <title>Instagram Copy 2</title>
    <desc>Created with Sketch.</desc>
    <defs></defs>
    <g id="About-Us-Page" stroke="none" stroke-width="1" fill="none" fill-rule="evenodd" sketch:type="MSPage">
        <g id="Desktop---about" sketch:type="MSArtboardGroup" transform="translate(-85.000000, -2462.000000)" fill="#FFFFFF">
            <g id="social-section-copy" sketch:type="MSLayerGroup" transform="translate(0.000000, 1768.000000)">
                <g id="desktop---instagram" transform="translate(0.000000, 653.000000)" sketch:type="MSShapeGroup">
                    <g id="featured_tweet_bg">
                        <g id="Instagram-Copy-2" transform="translate(-67.500000, -107.500000)">
                            <path d="M429.210586,456.323944 C441.509422,453.652842 451.559205,443.153255 453.963069,430.493022 C454.221086,429.124468 454.410299,427.73391 454.629614,426.360955 L454.629614,179.757058 C454.4189,178.406106 454.238287,177.050752 453.98027,175.7042 C451.344191,161.891037 440.210734,151.171425 426.540105,149.257208 C425.972466,149.1824 425.417729,149.054785 424.858691,148.953574 L183.212367,148.953574 C181.754568,149.222004 180.288168,149.424427 178.85187,149.758865 C165.508063,152.870017 155.634592,163.866861 153.733863,177.702026 C153.656458,178.278491 153.54035,178.850556 153.441443,179.427021 L153.441443,426.704194 C153.716662,428.270771 153.935977,429.85055 154.28,431.408326 C157.230001,444.759436 168.367758,455.109407 181.616958,456.852004 C182.257702,456.931213 182.902746,457.058828 183.543489,457.16444 L424.527568,457.16444 C426.092875,456.891609 427.662481,456.667183 429.210586,456.323944 Z M186.024758,274.755005 C186.024758,320.366165 186.020458,365.977324 186.029058,411.588484 C186.029058,418.149626 191.580735,423.791064 197.992471,423.791064 C268.672075,423.795465 339.347379,423.795465 410.026983,423.791064 C416.498922,423.791064 422.020498,418.158427 422.020498,411.548879 C422.024798,365.990526 422.020498,320.436573 422.020498,274.882619 L422.020498,273.936512 L393.268744,273.936512 C397.328219,287.212814 398.575304,300.717942 396.984196,314.482699 C395.384487,328.251857 391.049793,341.066106 383.988713,352.899045 C376.923333,364.745185 367.76371,374.558295 356.548548,382.369179 C327.478572,402.62907 289.205971,404.411272 258.359974,386.694868 C242.767114,377.748656 230.524182,365.273245 221.988102,349.198226 C209.254937,325.211113 207.220899,300.035865 214.690506,273.91451 C205.152458,273.923311 195.653112,273.923311 186.024758,273.923311 L186.024758,274.755005 Z M243.007931,302.1129 C242.526298,337.057253 269.863256,364.758386 302.635784,365.480068 C336.737101,366.228153 364.319176,338.346599 365.037325,304.436363 C365.772675,269.465607 338.207801,240.580739 304.037679,240.602742 C270.633008,240.580739 243.476663,268.08385 243.007931,302.1129 Z M410.444111,227.999716 C416.821444,227.836897 422.016197,222.243865 422.016197,215.709125 C422.020498,205.979625 422.020498,196.245724 422.016197,186.516223 C422.016197,179.537034 416.619331,173.983605 409.807668,173.979205 C400.325523,173.974804 390.843379,173.970404 381.356934,173.979205 C374.562472,173.988006 369.148404,179.554636 369.144104,186.533825 C369.139804,196.179716 369.114002,205.825607 369.178506,215.475899 C369.187107,216.914862 369.453725,218.411031 369.900955,219.775185 C371.603871,224.910566 376.200884,228.061323 381.829966,228.087726 C386.405477,228.096527 390.980988,228.083325 395.560799,228.083325 C400.514736,228.026119 405.485874,228.12293 410.444111,227.999716 Z" id="Path"></path>
                        </g>
                    </g>
                </g>
            </g>
        </g>
    </g>
</svg>